<svg width="19" height="19" viewBox="0 0 19 19" fill="none" xmlns="http://www.w3.org/2000/svg">
<g clip-path="url(#clip0_4_136)">
<path d="M9.77763 1.00793C5.10733 1.00793 1.3239 4.79136 1.3239 9.46167C1.3239 13.2028 3.74397 16.3622 7.10395 17.482C7.52663 17.5557 7.68495 17.3029 7.68495 17.0808C7.68495 16.8794 7.67496 16.2139 7.67496 15.5061C5.55077 15.8973 5.00127 14.9881 4.8322 14.5132C4.7369 14.2695 4.32497 13.5195 3.96531 13.3189C3.66943 13.1606 3.24674 12.7694 3.95532 12.7586C4.62085 12.7479 5.09657 13.3711 5.25488 13.6255C6.01572 14.9036 7.23075 14.5447 7.71723 14.3226C7.79101 13.7731 8.01311 13.4034 8.25596 13.1921C6.37539 12.9807 4.40951 12.2514 4.40951 9.01823C4.40951 8.09831 4.7369 7.33748 5.2764 6.74571C5.19187 6.53437 4.89599 5.66825 5.36094 4.50548C5.36094 4.50548 6.06798 4.28414 7.68495 5.37237C8.36125 5.18177 9.08058 5.08648 9.79838 5.08648C10.5177 5.08648 11.2355 5.18177 11.9118 5.37237C13.5288 4.27338 14.2366 4.50548 14.2366 4.50548C14.7015 5.66825 14.4057 6.53437 14.3211 6.74571C14.8606 7.33748 15.188 8.08832 15.188 9.01823C15.188 12.2614 13.2122 12.9807 11.3308 13.1913C11.6375 13.4564 11.9018 13.9637 11.9018 14.756C11.9018 15.8865 11.8911 16.7957 11.8911 17.0808C11.8911 17.3021 12.0494 17.5665 12.4721 17.482C15.8113 16.363 18.2314 13.1921 18.2314 9.46167C18.2314 4.79136 14.4487 1.00793 9.77763 1.00793Z" fill="#333333"/>
</g>
<defs>
<clipPath id="clip0_4_136">
<rect width="18.4445" height="18.4445" fill="white" transform="translate(0.555374 0.239441)"/>
</clipPath>
</defs>
</svg>
