<svg width="150" height="40" viewBox="0 0 150 40" fill="none" xmlns="http://www.w3.org/2000/svg">
<path fill-rule="evenodd" clip-rule="evenodd" d="M19.827 0.131162C20.5196 0.201479 21.0603 0.787025 21.0604 1.49826C21.0603 2.20941 20.5195 2.7944 19.827 2.86472L19.6869 2.87169L19.6857 2.87232L19.685 2.87169C19.6825 2.87169 19.68 2.87232 19.6774 2.87232L19.2496 2.8774C19.2264 2.87798 19.2031 2.87985 19.1799 2.88056C19.1469 2.8816 19.114 2.88315 19.081 2.88437C18.9565 2.8891 18.8322 2.89482 18.7084 2.90211C18.6763 2.90396 18.644 2.90455 18.612 2.90655C18.4909 3.08956 18.3403 3.32185 18.1703 3.60246C17.6832 4.40629 17.0268 5.59826 16.3684 7.12382C15.7731 8.50321 15.1801 10.152 14.7066 12.0294H19.6869C20.4454 12.0295 21.0604 12.6449 21.0604 13.4035C21.0603 14.162 20.4453 14.7768 19.6869 14.7769H14.1374C14.1172 14.8663 14.0949 15.0163 14.0715 15.2161C13.8602 16.6557 13.735 18.1926 13.735 19.8143C13.735 21.6018 13.8867 23.2864 14.1387 24.8511H25.2345C25.4866 23.2864 25.6383 21.6019 25.6383 19.8143C25.6383 19.0557 26.2533 18.441 27.0117 18.4409C27.7228 18.4409 28.3077 18.981 28.3782 19.6736L28.3845 19.813C28.3845 21.5912 28.2456 23.2751 28.0125 24.8504L28.0144 24.8511H35.8652C36.3599 23.2599 36.6264 21.5677 36.6264 19.8137C36.6265 19.0552 37.2414 18.4397 37.9998 18.4396C38.7494 18.4397 39.3577 19.0408 39.372 19.787C39.372 19.7959 39.372 19.8048 39.372 19.8137C39.372 20.3065 39.3537 20.7952 39.3181 21.279C39.3042 21.4674 39.2872 21.6549 39.268 21.8418C39.2375 22.1405 39.2002 22.4371 39.1565 22.7316C39.1054 23.0754 39.0464 23.4163 38.9778 23.754C38.886 24.2056 38.7785 24.6515 38.6564 25.0913C38.5181 25.5892 38.3604 26.0791 38.1849 26.5604C38.1515 26.6518 38.1175 26.7428 38.0828 26.8336C37.6112 28.0691 37.0191 29.245 36.3203 30.3467C36.1784 30.5702 36.0327 30.7911 35.8823 31.0084C34.3605 33.2068 32.4029 35.0803 30.1344 36.504C29.8849 36.6606 29.6314 36.8116 29.3745 36.9572C28.685 37.3478 27.9697 37.6982 27.2316 38.0048C26.9534 38.1204 26.672 38.2301 26.3874 38.3331C26.0734 38.4468 25.7554 38.5521 25.4342 38.65C25.1576 38.7344 24.8785 38.8129 24.597 38.8852C23.1714 39.2513 21.6834 39.4619 20.1521 39.4974L19.685 39.5025L19.545 39.4962C18.8524 39.4258 18.3116 38.8403 18.3116 38.1291C18.3117 37.418 18.8525 36.833 19.545 36.7626L19.685 36.7556L20.1224 36.7499C20.1477 36.7493 20.1731 36.7482 20.1984 36.7474C20.2208 36.7467 20.2432 36.7456 20.2656 36.7449C20.4293 36.7389 20.5924 36.7315 20.7549 36.7214C20.7566 36.7213 20.7583 36.7209 20.76 36.7208C20.881 36.5378 21.0317 36.3055 21.2017 36.0249C21.6888 35.221 22.3458 34.0292 23.0042 32.5035C23.5995 31.1241 24.1925 29.4753 24.666 27.5979H14.7072C14.8412 28.1293 14.9858 28.6424 15.1363 29.1361C15.4001 30.067 15.6049 30.663 16.1573 32.0015C16.8522 33.6855 14.3168 34.6448 13.5385 32.7881C13.1575 31.8793 12.4636 30.0343 11.8976 27.5979H8.47638C7.71793 27.5978 7.10295 26.9824 7.10295 26.2239C7.10308 25.4696 7.71117 24.858 8.4637 24.8511L11.3722 24.8504C11.3112 24.4445 11.2539 24.029 11.2061 23.6044C10.8388 20.3408 11.0381 17.479 11.2118 15.9057C11.2556 15.5236 11.3047 15.1472 11.3595 14.7769H3.50743C3.01273 16.368 2.74626 18.0598 2.74624 19.8137C2.74612 20.5721 2.13106 21.1875 1.37281 21.1877C0.624224 21.1877 0.0158784 20.5883 6.55765e-06 19.8434C-8.21942e-06 19.8335 6.60242e-06 19.8236 6.55765e-06 19.8137C3.71261e-05 17.0516 0.569864 14.4227 1.59654 12.037C1.65083 11.9108 1.70638 11.7853 1.76322 11.6605C4.13958 6.44347 8.72509 2.44561 14.325 0.863829C14.3642 0.852759 14.4036 0.842339 14.4429 0.831506C15.9311 0.421186 17.4897 0.180998 19.0969 0.133698C19.1378 0.132495 19.1788 0.131481 19.2198 0.130529L19.6869 0.124825L19.827 0.131162ZM27.4921 27.5979C26.9556 29.9169 26.2402 31.9339 25.5248 33.5917C25.1083 34.5569 24.6904 35.4019 24.3073 36.1168H24.3086L24.3079 36.118C28.8443 34.8344 32.6064 31.7073 34.7358 27.5979H27.4921ZM15.0647 3.50929C10.5283 4.79285 6.76628 7.92 4.63685 12.0294H11.8799C12.4163 9.71039 13.1324 7.69337 13.8478 6.03559C14.2643 5.07052 14.6816 4.22531 15.0647 3.51056L15.0634 3.51119L15.0647 3.50929Z" fill="white"/>
<path d="M1.46534 26.6827C2.22376 26.6829 2.8473 27.2586 2.92243 27.9972L2.93004 28.1474V36.3519H11.1345C11.9437 36.3519 12.5998 37.008 12.5998 37.8172C12.5997 38.6263 11.9436 39.2819 11.1345 39.2819H1.46534C0.656221 39.2819 0.000147188 38.6263 6.55765e-06 37.8172V28.1474L0.0076121 27.9972C0.0827492 27.2585 0.706788 26.6827 1.46534 26.6827Z" fill="white"/>
<path d="M66.5206 15.3752H80.9312V1.47354H88.3922V37.1182H80.9312V21.7911H66.5206V37.1182H59.0595V1.47354H66.5206V15.3752Z" fill="white"/>
<path d="M149.92 7.686H144.146V30.9057H149.92V37.1182H130.859V30.9057H136.685V7.686H130.859V1.47354H149.92V7.686Z" fill="white"/>
<path fill-rule="evenodd" clip-rule="evenodd" d="M119.304 24.4898H124.771V30.9564H119.304V37.0675H111.843V30.9564H95.286V24.9994L110.923 1.42284H119.304V24.4898ZM103.309 24.4898H111.843V11.4545L103.309 24.4898Z" fill="white"/>
<path d="M37.9085 0.126726C38.7177 0.126748 39.3732 0.782867 39.3732 1.59206V11.2612C39.3732 12.0704 38.7177 12.7265 37.9085 12.7266C37.0993 12.7266 36.4432 12.0704 36.4432 11.2612V3.05676H28.2387L28.0885 3.04915C27.3499 2.97397 26.7741 2.3505 26.774 1.59206C26.774 0.833534 27.3498 0.209504 28.0885 0.134331L28.2387 0.126726H37.9085Z" fill="white"/>
<path d="M32.7178 5.4956C33.5353 5.11967 34.379 5.96395 34.0031 6.78157L32.1321 10.8512C32.014 11.1082 32.014 11.4042 32.1321 11.6612L34.0031 15.7308C34.379 16.5484 33.5353 17.3926 32.7178 17.0167L28.6488 15.1451C28.3918 15.0269 28.0958 15.0269 27.8388 15.1451L23.7698 17.0167C22.9524 17.3926 22.1086 16.5484 22.4845 15.7308L24.3555 11.6612C24.4736 11.4042 24.4736 11.1082 24.3555 10.8512L22.4845 6.78157C22.1086 5.96394 22.9523 5.11965 23.7698 5.4956L27.8388 7.3672C28.0958 7.48538 28.3918 7.48538 28.6488 7.3672L32.7178 5.4956Z" fill="white"/>
</svg>
