<svg width="231" height="61" viewBox="0 0 231 61" fill="none" xmlns="http://www.w3.org/2000/svg">
<path fill-rule="evenodd" clip-rule="evenodd" d="M30.5498 0.00976562C31.617 0.118111 32.4501 1.02033 32.4502 2.11621C32.45 3.21197 31.6169 4.11333 30.5498 4.22168L30.334 4.23242L30.332 4.2334L30.3311 4.23242C30.3272 4.23243 30.3232 4.2334 30.3193 4.2334L29.6602 4.24121C29.6243 4.24212 29.5885 4.24499 29.5527 4.24609C29.5019 4.24768 29.4511 4.25007 29.4004 4.25195C29.2085 4.25925 29.0171 4.26806 28.8262 4.2793C28.7768 4.28214 28.727 4.28305 28.6777 4.28613C28.4912 4.56812 28.2591 4.92604 27.9971 5.3584C27.2466 6.59697 26.2352 8.43357 25.2207 10.7842C24.3035 12.9096 23.3898 15.45 22.6602 18.3428H30.334C31.5026 18.343 32.4502 19.2911 32.4502 20.46C32.4501 21.6287 31.5026 22.576 30.334 22.5762H21.7832C21.752 22.7139 21.7177 22.9451 21.6817 23.2529C21.356 25.471 21.1631 27.8392 21.1631 30.3379C21.1631 33.0922 21.3968 35.6878 21.7852 38.0986H38.8818C39.2702 35.6878 39.5039 33.0922 39.5039 30.3379C39.5039 29.1691 40.4515 28.2219 41.6201 28.2217C42.7158 28.2217 43.6171 29.0539 43.7256 30.1211L43.7354 30.3359C43.7354 33.0758 43.5214 35.6704 43.1621 38.0977L43.1651 38.0986H55.2617C56.0241 35.6469 56.4346 33.0395 56.4346 30.3369C56.4348 29.1682 57.3823 28.2199 58.5508 28.2197C59.7057 28.2198 60.6431 29.146 60.6651 30.2959C60.6651 30.3096 60.6651 30.3232 60.6651 30.3369C60.665 31.0963 60.6369 31.8494 60.582 32.5947C60.5606 32.885 60.5344 33.174 60.5049 33.4619C60.4578 33.9221 60.4004 34.3792 60.333 34.833C60.2542 35.3626 60.1634 35.8879 60.0576 36.4082C59.9163 37.1041 59.7506 37.7911 59.5625 38.4688C59.3494 39.236 59.1064 39.9909 58.8359 40.7324C58.7846 40.8732 58.7321 41.0135 58.6787 41.1533C57.952 43.0571 57.0396 44.8689 55.9629 46.5664C55.7444 46.9109 55.5199 47.2511 55.2881 47.5859C52.9433 50.9733 49.9269 53.86 46.4317 56.0537C46.0471 56.295 45.6566 56.5277 45.2608 56.752C44.1984 57.3539 43.0962 57.8938 41.959 58.3662C41.5302 58.5443 41.0966 58.7133 40.6582 58.8721C40.1744 59.0473 39.6844 59.2094 39.1895 59.3604C38.7633 59.4903 38.3333 59.6112 37.8994 59.7227C35.7029 60.2868 33.4103 60.6113 31.0508 60.666L30.3311 60.6738L30.1152 60.6641C29.0482 60.5556 28.2149 59.6535 28.2149 58.5576C28.215 57.462 29.0483 56.5606 30.1152 56.4521L30.3311 56.4414L31.0049 56.4326C31.0439 56.4316 31.0831 56.4299 31.1221 56.4287C31.1566 56.4276 31.1911 56.426 31.2256 56.4248C31.4778 56.4157 31.7291 56.4043 31.9795 56.3887C31.9821 56.3885 31.9847 56.3879 31.9873 56.3877C32.1739 56.1057 32.406 55.7478 32.668 55.3154C33.4184 54.0768 34.4308 52.2404 35.4453 49.8896C36.3626 47.7643 37.2763 45.2238 38.0059 42.3311H22.6611C22.8676 43.1498 23.0904 43.9404 23.3223 44.7012C23.7287 46.1354 24.0443 47.0538 24.8955 49.1162C25.9661 51.7109 22.0597 53.189 20.8604 50.3281C20.2733 48.9278 19.2042 46.085 18.332 42.3311H13.0606C11.8919 42.3309 10.9443 41.3827 10.9443 40.2139C10.9446 39.0517 11.8815 38.1093 13.041 38.0986L17.5225 38.0977C17.4284 37.4722 17.3403 36.832 17.2666 36.1777C16.7007 31.1492 17.0077 26.7397 17.2754 24.3154C17.3428 23.7267 17.4185 23.1467 17.5029 22.5762H5.40431C4.64207 25.0278 4.23148 27.6345 4.23146 30.3369C4.23127 31.5055 3.28358 32.4537 2.11524 32.4541C0.961816 32.4541 0.0244657 31.5305 1.01041e-05 30.3828C-1.26646e-05 30.3675 1.01731e-05 30.3522 1.01041e-05 30.3369C5.72046e-05 26.0811 0.878057 22.0304 2.45997 18.3545C2.54364 18.1601 2.62922 17.9667 2.71681 17.7744C6.37834 9.73588 13.4438 3.5759 22.0723 1.13867C22.1327 1.12161 22.1934 1.10556 22.2539 1.08887C24.547 0.456639 26.9485 0.0865539 29.4248 0.0136719C29.4879 0.0118184 29.5511 0.0102565 29.6143 0.00878906L30.334 0L30.5498 0.00976562ZM42.3604 42.3311C41.5337 45.9042 40.4314 49.0121 39.3291 51.5664C38.6873 53.0536 38.0434 54.3556 37.4531 55.457H37.4551L37.4541 55.459C44.4437 53.4812 50.2405 48.6628 53.5215 42.3311H42.3604ZM23.2119 5.21484C16.2222 7.19257 10.4256 12.0109 7.14454 18.3428H18.3047C19.1313 14.7696 20.2346 11.6618 21.3369 9.10742C21.9787 7.62042 22.6217 6.3181 23.2119 5.2168L23.21 5.21777L23.2119 5.21484Z" fill="#0085FF"/>
<path d="M2.25782 40.9209C3.42641 40.9211 4.38718 41.8082 4.50294 42.9463L4.51466 43.1777V55.8193H17.1563C18.4031 55.8193 19.4141 56.8303 19.4141 58.0771C19.4139 59.3238 18.403 60.334 17.1563 60.334H2.25782C1.01112 60.334 0.000226791 59.3238 1.01041e-05 58.0771V43.1777L0.0117289 42.9463C0.127502 41.8081 1.08903 40.9209 2.25782 40.9209Z" fill="#0085FF"/>
<path d="M102.496 23.498H124.7V2.07812H136.196V57H124.7V33.3838H102.496V57H91V2.07812H102.496V23.498Z" fill="#0085FF"/>
<path d="M231 11.6504H222.103V47.4277H231V57H201.63V47.4277H210.606V11.6504H201.63V2.07812H231V11.6504Z" fill="#0085FF"/>
<path fill-rule="evenodd" clip-rule="evenodd" d="M183.825 37.542H192.25V47.5059H183.825V56.9219H172.329V47.5059H146.818V38.3271L170.912 2H183.825V37.542ZM159.181 37.542H172.329V17.457L159.181 37.542Z" fill="#0085FF"/>
<path d="M58.4102 0.00292969C59.657 0.00296368 60.667 1.01392 60.667 2.26074V17.1592C60.667 18.406 59.657 19.417 58.4102 19.417C57.1633 19.417 56.1524 18.406 56.1524 17.1592V4.51758H43.5108L43.2793 4.50586C42.1412 4.39002 41.254 3.42937 41.2539 2.26074C41.2539 1.09199 42.1411 0.130476 43.2793 0.0146484L43.5108 0.00292969H58.4102Z" fill="#0085FF"/>
<path d="M50.4121 8.27539C51.6718 7.69615 52.9718 8.99703 52.3926 10.2568L49.5098 16.5273C49.3278 16.9234 49.3277 17.3794 49.5098 17.7754L52.3926 24.0459C52.9718 25.3057 51.6717 26.6065 50.4121 26.0273L44.1426 23.1436C43.7466 22.9614 43.2906 22.9614 42.8945 23.1436L36.625 26.0273C35.3654 26.6065 34.0653 25.3057 34.6445 24.0459L37.5274 17.7754C37.7094 17.3794 37.7093 16.9234 37.5274 16.5273L34.6445 10.2568C34.0653 8.99702 35.3654 7.69611 36.625 8.27539L42.8945 11.1592C43.2905 11.3413 43.7466 11.3413 44.1426 11.1592L50.4121 8.27539Z" fill="#10B875"/>
</svg>
