<svg width="16" height="17" viewBox="0 0 16 17" fill="none" xmlns="http://www.w3.org/2000/svg">
<g clip-path="url(#clip0_4_126)">
<path d="M7.99988 1.62438C10.1359 1.62438 10.3899 1.63383 11.2329 1.67373C12.0129 1.71153 12.4359 1.84803 12.7179 1.96353C13.0919 2.11578 13.3579 2.29743 13.6379 2.59143C13.9179 2.88543 14.0909 3.16473 14.2359 3.55743C14.3459 3.85353 14.4759 4.29768 14.5119 5.11668C14.5499 6.00288 14.5579 6.26853 14.5579 8.51133C14.5579 10.7541 14.5499 11.0208 14.5119 11.906C14.4759 12.725 14.3459 13.1691 14.2359 13.4652C14.0909 13.8579 13.9179 14.1372 13.6379 14.4312C13.3579 14.7252 13.0919 14.9069 12.7179 15.0591C12.4359 15.1746 12.0129 15.3111 11.2329 15.3489C10.3889 15.3888 10.1359 15.3983 7.99988 15.3983C5.86388 15.3983 5.60988 15.3888 4.76688 15.3489C3.98688 15.3111 3.56388 15.1746 3.28188 15.0591C2.93471 14.9239 2.62048 14.7095 2.36188 14.4312C2.09687 14.1597 1.89262 13.8298 1.76388 13.4652C1.65388 13.1691 1.52388 12.725 1.48788 11.906C1.44988 11.0198 1.44088 10.7541 1.44088 8.51133C1.44088 6.26853 1.44988 6.00183 1.48788 5.11668C1.52388 4.29768 1.65388 3.85353 1.76388 3.55743C1.90888 3.16473 2.08188 2.88543 2.36188 2.59143C2.64188 2.29743 2.90788 2.11578 3.28188 1.96353C3.56388 1.84803 3.98688 1.71153 4.76688 1.67373C5.61088 1.63383 5.86388 1.62438 7.99988 1.62438ZM7.99988 0.111328C5.82688 0.111328 5.55488 0.121828 4.70188 0.161728C3.84988 0.202678 3.26888 0.344428 2.75988 0.552328C2.22572 0.76267 1.74202 1.0935 1.34288 1.52148C0.897878 1.98768 0.623878 2.45598 0.419878 3.00933C0.221878 3.54378 0.0868779 4.15383 0.0478779 5.04843C0.00987793 5.94408 -0.00012207 6.22968 -0.00012207 8.51133C-0.00012207 10.793 0.00987793 11.0786 0.0478779 11.9742C0.0868779 12.8688 0.221878 13.4789 0.419878 14.0133C0.623878 14.5656 0.897878 15.035 1.34288 15.5012C1.78688 15.9684 2.23288 16.2561 2.75988 16.4703C3.26888 16.6782 3.84988 16.82 4.70188 16.8609C5.55488 16.9008 5.82688 16.9113 7.99988 16.9113C10.1729 16.9113 10.4449 16.9008 11.2979 16.8609C12.1499 16.82 12.7309 16.6782 13.2399 16.4703C13.774 16.26 14.2577 15.9292 14.6569 15.5012C15.1019 15.035 15.3759 14.5667 15.5799 14.0133C15.7779 13.4789 15.9129 12.8688 15.9519 11.9742C15.9899 11.0786 15.9999 10.793 15.9999 8.51133C15.9999 6.22968 15.9899 5.94408 15.9519 5.04843C15.9129 4.15383 15.7779 3.54378 15.5799 3.00933C15.3796 2.44846 15.0645 1.94058 14.6569 1.52148C14.2577 1.0935 13.774 0.76267 13.2399 0.552328C12.7309 0.344428 12.1499 0.202678 11.2979 0.161728C10.4449 0.121828 10.1729 0.111328 7.99988 0.111328ZM7.99988 4.19793C6.91037 4.19793 5.86548 4.65237 5.09508 5.46129C4.32468 6.27021 3.89188 7.36734 3.89188 8.51133C3.89188 9.65531 4.32468 10.7524 5.09508 11.5614C5.86548 12.3703 6.91037 12.8247 7.99988 12.8247C9.08939 12.8247 10.1343 12.3703 10.9047 11.5614C11.6751 10.7524 12.1079 9.65531 12.1079 8.51133C12.1079 7.36734 11.6751 6.27021 10.9047 5.46129C10.1343 4.65237 9.08939 4.19793 7.99988 4.19793ZM7.99988 11.3117C7.29255 11.3117 6.61418 11.0166 6.11402 10.4915C5.61386 9.96631 5.33288 9.25403 5.33288 8.51133C5.33288 7.76863 5.61386 7.05635 6.11402 6.53118C6.61418 6.00601 7.29255 5.71098 7.99988 5.71098C8.70721 5.71098 9.38557 6.00601 9.88573 6.53118C10.3859 7.05635 10.6669 7.76863 10.6669 8.51133C10.6669 9.25403 10.3859 9.96631 9.88573 10.4915C9.38557 11.0166 8.70721 11.3117 7.99988 11.3117ZM13.2299 4.02783C13.2299 4.29517 13.1287 4.55156 12.9487 4.74059C12.7687 4.92963 12.5245 5.03583 12.2699 5.03583C12.0153 5.03583 11.7711 4.92963 11.5911 4.74059C11.411 4.55156 11.3099 4.29517 11.3099 4.02783C11.3099 3.76049 11.411 3.5041 11.5911 3.31506C11.7711 3.12603 12.0153 3.01983 12.2699 3.01983C12.5245 3.01983 12.7687 3.12603 12.9487 3.31506C13.1287 3.5041 13.2299 3.76049 13.2299 4.02783Z" fill="#333333"/>
</g>
<defs>
<clipPath id="clip0_4_126">
<rect width="16" height="16.8" fill="white" transform="translate(-0.00012207 0.111328)"/>
</clipPath>
</defs>
</svg>
