<svg width="16" height="17" viewBox="0 0 16 17" fill="none" xmlns="http://www.w3.org/2000/svg">
<g clip-path="url(#clip0_4_128)">
<mask id="mask0_4_128" style="mask-type:luminance" maskUnits="userSpaceOnUse" x="-1" y="0" width="17" height="17">
<path d="M-0.00012207 0.111328H15.9999V16.9113H-0.00012207V0.111328Z" fill="white"/>
</mask>
<g mask="url(#mask0_4_128)">
<path d="M13.6149 14.2654H11.2469V10.4119C11.2469 9.49212 11.2309 8.30877 10.0159 8.30877C8.78188 8.30877 8.59388 9.31047 8.59388 10.3447V14.2654H6.22588V6.33792H8.49988V7.42257H8.53188C8.76064 7.01803 9.08876 6.68548 9.48188 6.45972C9.87788 6.23397 10.3239 6.12372 10.7749 6.14157C13.1749 6.14157 13.6169 7.78272 13.6169 9.91737L13.6149 14.2654ZM3.55488 5.25642C3.28288 5.25642 3.01688 5.17242 2.79088 5.01492C2.62157 4.89939 2.47915 4.74541 2.37413 4.56433C2.2691 4.38326 2.20416 4.17972 2.1841 3.96876C2.16403 3.7578 2.18936 3.5448 2.25821 3.3455C2.32706 3.14619 2.43767 2.96567 2.58188 2.81727C2.77484 2.6166 3.0199 2.48016 3.28637 2.42506C3.55283 2.36996 3.82886 2.39865 4.07988 2.50752C4.33088 2.61567 4.54588 2.79942 4.69688 3.03357C4.81046 3.20905 4.88507 3.40907 4.91522 3.61886C4.94537 3.82866 4.93028 4.04288 4.87106 4.24574C4.81184 4.4486 4.71001 4.63491 4.57308 4.79093C4.43615 4.94695 4.2676 5.06871 4.07988 5.14722C3.91319 5.21873 3.73494 5.25581 3.55488 5.25642ZM4.73788 14.2675H2.36788V6.33792H4.73788V14.2675ZM14.7949 0.111422H1.17888C0.869802 0.107407 0.571772 0.231976 0.349878 0.457922C0.241084 0.568511 0.154162 0.700571 0.0940993 0.846523C0.0340369 0.992474 0.00201717 1.14944 -0.00012207 1.30842L-0.00012207 15.5254C0.00287793 15.8467 0.129878 16.1533 0.349878 16.378C0.571878 16.6027 0.869878 16.7266 1.17888 16.7245H14.7949C15.1049 16.7277 15.4029 16.6038 15.6249 16.378C15.8469 16.1544 15.9749 15.8467 15.9789 15.5254V1.30842C15.9765 1.14879 15.944 0.991245 15.8832 0.844898C15.8224 0.698551 15.7346 0.566308 15.6249 0.455822C15.4018 0.231357 15.1038 0.107703 14.7949 0.111422Z" fill="#333333"/>
</g>
</g>
<defs>
<clipPath id="clip0_4_128">
<rect width="16" height="16.8" fill="white" transform="translate(-0.00012207 0.111328)"/>
</clipPath>
</defs>
</svg>
