<svg width="62" height="62" viewBox="0 0 62 62" fill="none" xmlns="http://www.w3.org/2000/svg">
<path fill-rule="evenodd" clip-rule="evenodd" d="M31.9473 61.3291C34.3067 61.2743 36.5993 60.9499 38.7959 60.3857C39.2298 60.2743 39.6598 60.1534 40.0859 60.0234C40.5809 59.8725 41.0708 59.7104 41.5547 59.5352C41.9931 59.3764 42.4267 59.2074 42.8555 59.0293C43.9927 58.5568 45.0949 58.017 46.1572 57.415C46.5531 57.1908 46.9436 56.9581 47.3281 56.7168C50.8234 54.5231 53.8398 51.6364 56.1846 48.249C56.4164 47.9142 56.6409 47.5739 56.8594 47.2295C57.9361 45.532 58.8485 43.7202 59.5752 41.8164C59.6286 41.6766 59.6811 41.5363 59.7324 41.3955C60.0029 40.6539 60.2459 39.8991 60.459 39.1318C60.6471 38.4542 60.8128 37.7671 60.9541 37.0713C61.0599 36.551 61.1507 36.0257 61.2295 35.4961C61.2969 35.0422 61.3543 34.5852 61.4014 34.125C61.4309 33.8371 61.4571 33.5481 61.4785 33.2578C61.5334 32.5124 61.5615 31.7594 61.5615 31C61.5615 30.9863 61.5616 30.9727 61.5615 30.959C61.5396 29.8091 60.6022 28.8829 59.4473 28.8828C58.2788 28.883 57.3312 29.8313 57.3311 31C57.3311 33.7026 56.9205 36.31 56.1582 38.7617H44.0615L44.0586 38.7607C44.4179 36.3335 44.6318 33.7389 44.6318 30.999L44.6221 30.7842C44.5136 29.717 43.6123 28.8848 42.5166 28.8848C41.348 28.885 40.4004 29.8322 40.4004 31.001C40.4004 33.7553 40.1667 36.3508 39.7783 38.7617H22.6817C22.2933 36.3509 22.0596 33.7553 22.0596 31.001C22.0596 28.5023 22.2525 26.1341 22.5781 23.916C22.6142 23.6082 22.6485 23.377 22.6797 23.2393H31.2305C32.399 23.2391 33.3466 22.2918 33.3467 21.123C33.3467 19.9542 32.3991 19.0061 31.2305 19.0059H23.5567C24.2862 16.1131 25.2 13.5727 26.1172 11.4473C27.1317 9.09665 28.1431 7.26005 28.8936 6.02148C29.1555 5.58912 29.3876 5.2312 29.5742 4.94922C29.6235 4.94614 29.6733 4.94522 29.7227 4.94238C29.9135 4.93115 30.1049 4.92234 30.2969 4.91504C30.3476 4.91316 30.3984 4.91077 30.4492 4.90918C30.485 4.90808 30.5208 4.9052 30.5567 4.9043L31.2158 4.89648C31.2197 4.89648 31.2236 4.89551 31.2275 4.89551L31.2285 4.89648L31.2305 4.89551L31.4463 4.88477C32.5134 4.77641 33.3465 3.87506 33.3467 2.7793C33.3466 1.68342 32.5135 0.781197 31.4463 0.672852L31.2305 0.663086L30.5108 0.671875C30.4476 0.673344 30.3844 0.674904 30.3213 0.676758C27.8449 0.749638 25.4434 1.11972 23.1504 1.75195C23.0899 1.76865 23.0292 1.7847 22.9688 1.80176C14.3402 4.23898 7.27483 10.399 3.61329 18.4375C3.5257 18.6298 3.44012 18.8232 3.35646 19.0176C1.77454 22.6935 0.896542 26.7441 0.896494 31C0.896495 31.0153 0.896472 31.0306 0.896494 31.0459C0.92095 32.1936 1.85829 33.1172 3.01173 33.1172C4.18007 33.1168 5.12775 32.1685 5.12794 31C5.12797 28.2976 5.53855 25.6909 6.30079 23.2393H18.3994C18.315 23.8098 18.2393 24.3898 18.1719 24.9785C17.9042 27.4028 17.5971 31.8122 18.1631 36.8408C18.2367 37.4951 18.3249 38.1353 18.419 38.7607L13.9375 38.7617C12.778 38.7724 11.841 39.7148 11.8408 40.877C11.8408 42.0458 12.7884 42.994 13.957 42.9941H19.2285C20.1007 46.7481 21.1698 49.5909 21.7568 50.9912C22.9561 53.8521 26.8626 52.374 25.792 49.7793C24.9408 47.7169 24.6252 46.7985 24.2188 45.3643C23.9868 44.6034 23.7641 43.8129 23.5576 42.9941H38.9024C38.1728 45.8869 37.259 48.4274 36.3418 50.5527C35.3273 52.9035 34.3149 54.7399 33.5645 55.9785C33.3025 56.4109 33.0704 56.7688 32.8838 57.0508C32.8812 57.0509 32.8786 57.0516 32.876 57.0518C32.6256 57.0674 32.3743 57.0788 32.1221 57.0879C32.0876 57.0891 32.0531 57.0907 32.0186 57.0918C31.9796 57.093 31.9404 57.0947 31.9014 57.0957L31.2275 57.1045L31.0117 57.1152C29.9448 57.2237 29.1115 58.125 29.1113 59.2207C29.1113 60.3166 29.9446 61.2187 31.0117 61.3271L31.2275 61.3369L31.9473 61.3291ZM8.04103 19.0059C11.3221 12.674 17.1186 7.85566 24.1084 5.87793C24.1079 5.87885 24.1069 5.87994 24.1065 5.88086L24.1084 5.87988C23.5182 6.98119 22.8752 8.2835 22.2334 9.77051C21.1311 12.3248 20.0278 15.4327 19.2012 19.0059H8.04103ZM38.3516 56.1201H38.3496C38.9399 55.0187 39.5838 53.7167 40.2256 52.2295C41.3279 49.6751 42.4302 46.5673 43.2568 42.9941H54.418C51.137 49.3259 45.3402 54.1443 38.3506 56.1221L38.3516 56.1201Z" fill="white"/>
<path d="M20.3101 58.7398C20.3101 59.9867 19.2996 60.9972 18.0527 60.9972H3.15385C1.90702 60.9972 0.896495 59.9867 0.896495 58.7398L0.896495 43.841L0.908187 43.6095C1.02388 42.4712 1.98501 41.5837 3.15386 41.5837C4.3227 41.5837 5.28383 42.4712 5.39952 43.6095L5.41121 43.841L5.41121 56.4825H18.0527C19.2996 56.4825 20.3101 57.493 20.3101 58.7398Z" fill="white"/>
<path d="M59.3066 20.0798C60.5534 20.0798 61.5639 19.0693 61.5639 17.8225V2.92359C61.5639 1.67675 60.5534 0.666233 59.3066 0.666233L44.4076 0.666234L44.1761 0.677925C43.0378 0.793621 42.1502 1.75475 42.1502 2.92359C42.1502 4.09244 43.0378 5.05356 44.1761 5.16926L44.4076 5.18095L57.0492 5.18095V17.8225C57.0492 19.0693 58.0597 20.0798 59.3066 20.0798Z" fill="white"/>
<path d="M35.5405 24.7089C34.9613 25.9687 36.2618 27.2693 37.5214 26.69L43.7911 23.8067C44.1871 23.6246 44.6429 23.6246 45.039 23.8067L51.3086 26.69C52.5683 27.2693 53.8687 25.9687 53.2895 24.7089L50.4066 18.4384C50.2245 18.0423 50.2245 17.5864 50.4066 17.1903L53.2895 10.9198C53.8687 9.65997 52.5683 8.35937 51.3086 8.93866L45.039 11.822C44.6429 12.0041 44.1871 12.0041 43.7911 11.822L37.5214 8.93866C36.2618 8.35937 34.9613 9.65997 35.5405 10.9198L38.4235 17.1903C38.6056 17.5864 38.6056 18.0423 38.4235 18.4384L35.5405 24.7089Z" fill="white"/>
</svg>
