<svg width="431" height="41" viewBox="0 0 431 41" fill="none" xmlns="http://www.w3.org/2000/svg">
<path d="M146.283 0.666667C148.501 0.666669 150.566 1.13828 152.477 2.08172C154.388 3.02516 156.01 4.3356 157.341 6.01282C158.706 7.65505 159.627 9.55948 160.105 11.7258L152.887 13.1936C152.648 12.1803 152.187 11.2366 151.505 10.363C150.822 9.48954 150.02 8.79066 149.099 8.26656C148.177 7.74243 147.204 7.48066 146.181 7.48066C144.133 7.48069 142.444 7.9523 141.113 8.89571C139.816 9.83915 138.844 11.2021 138.195 12.9841C137.581 14.7311 137.273 16.845 137.273 19.3257C137.273 22.0861 137.598 24.3928 138.246 26.2447C138.929 28.0966 139.936 29.4942 141.266 30.4376C142.631 31.3461 144.338 31.8004 146.386 31.8004C147.341 31.8004 148.263 31.5732 149.15 31.119C150.071 30.6298 150.856 29.9657 151.505 29.1271C152.187 28.2885 152.648 27.2927 152.887 26.1397L160.105 27.6075C159.627 29.7389 158.808 31.6434 157.647 33.3205C156.487 34.9976 154.968 36.3077 153.091 37.2511C151.214 38.1945 148.979 38.6666 146.386 38.6667C143.246 38.6667 140.584 38.1248 138.4 37.0415C136.25 35.9583 134.509 34.5083 133.178 32.6914C131.847 30.8394 130.875 28.7778 130.261 26.5065C129.68 24.2003 129.39 21.8417 129.39 19.4307C129.39 16.88 129.732 14.4862 130.414 12.2499C131.097 9.97884 132.137 7.98722 133.537 6.27515C134.936 4.52804 136.694 3.16513 138.81 2.18675C140.925 1.17349 143.417 0.666667 146.283 0.666667Z" fill="#0085FF"/>
<path d="M386.639 0.666667C388.857 0.666671 390.922 1.13828 392.833 2.08172C394.744 3.02516 396.365 4.3356 397.696 6.01282C399.061 7.65505 399.982 9.55948 400.46 11.7258L393.242 13.1936C393.003 12.1803 392.543 11.2366 391.86 10.363C391.178 9.48954 390.376 8.79066 389.454 8.26656C388.533 7.74243 387.56 7.48066 386.536 7.48066C384.489 7.48069 382.799 7.9523 381.468 8.89571C380.172 9.83915 379.199 11.2021 378.551 12.9841C377.936 14.7311 377.629 16.845 377.629 19.3257C377.629 22.0861 377.953 24.3928 378.602 26.2447C379.284 28.0966 380.291 29.4942 381.622 30.4376C382.987 31.3461 384.694 31.8004 386.741 31.8004C387.697 31.8004 388.618 31.5732 389.505 31.119C390.427 30.6298 391.212 29.9657 391.86 29.1271C392.543 28.2885 393.003 27.2927 393.242 26.1397L400.46 27.6075C399.982 29.7389 399.163 31.6434 398.003 33.3205C396.843 34.9976 395.324 36.3077 393.447 37.2511C391.57 38.1945 389.335 38.6666 386.741 38.6667C383.602 38.6667 380.939 38.1248 378.755 37.0415C376.605 35.9583 374.865 34.5083 373.534 32.6914C372.203 30.8394 371.23 28.7778 370.616 26.5065C370.036 24.2003 369.746 21.8417 369.746 19.4307C369.746 16.88 370.087 14.4862 370.77 12.2499C371.452 9.97884 372.493 7.98722 373.892 6.27515C375.291 4.52804 377.049 3.16513 379.165 2.18675C381.281 1.17349 383.772 0.666667 386.639 0.666667Z" fill="#0085FF"/>
<path fill-rule="evenodd" clip-rule="evenodd" d="M323.261 1.29581C325.548 1.29584 327.562 1.8026 329.302 2.8159C331.042 3.82922 332.407 5.26198 333.397 7.11383C334.421 8.96574 334.933 11.1497 334.933 13.6655C334.933 15.9017 334.455 17.9635 333.5 19.8503C332.578 21.7021 331.23 23.1869 329.456 24.305C327.715 25.3882 325.616 25.9302 323.159 25.9302H315.481V38.0898H307.904V1.29581H323.261ZM315.378 19.3257H321.981C323.62 19.3257 324.865 18.7492 325.718 17.5961C326.605 16.4081 327.049 15.063 327.049 13.5605C327.049 11.9881 326.606 10.6603 325.718 9.57711C324.831 8.45899 323.585 7.89974 321.981 7.89974H315.378V19.3257Z" fill="#0085FF"/>
<path d="M67.0239 15.6569H81.4598V1.34807H88.9334V38.0375H81.4598V22.2614H67.0239V38.0375H59.5498V1.34807H67.0239V15.6569Z" fill="#0085FF"/>
<path fill-rule="evenodd" clip-rule="evenodd" d="M127.526 38.0375H119.745L117.038 29.5989H104.671L101.88 38.0375H93.7919L106.333 1.34807H115.036L127.526 38.0375ZM106.854 22.995H114.918L110.946 10.6184L106.854 22.995Z" fill="#0085FF"/>
<path d="M173.854 16.8624L186.907 1.34807H195.098L183.373 15.1179L195.61 38.0375H186.907L178.259 21.1236L173.854 26.297V38.0375H166.381V1.34807H173.854V16.8624Z" fill="#0085FF"/>
<path d="M252.85 7.74245H247.066V31.6431H252.85V38.0375H233.756V31.6431H239.591V7.74245H233.756V1.34807H252.85V7.74245Z" fill="#0085FF"/>
<path d="M280.145 25.2488L289.922 1.34807H298.676V38.0375H291.202V15.4996L283.728 34.7878H276.817L269.037 15.5524V38.0375H261.563V1.34807H270.368L280.145 25.2488Z" fill="#0085FF"/>
<path fill-rule="evenodd" clip-rule="evenodd" d="M367.882 38.0375H360.101L357.393 29.5989H345.026L342.236 38.0375H334.147L346.689 1.34807H355.391L367.882 38.0375ZM347.21 22.995H355.274L351.302 10.6184L347.21 22.995Z" fill="#0085FF"/>
<path d="M430.591 7.95252H421.018V38.0375H413.544V7.95252H404.176V1.34807H430.591V7.95252Z" fill="#0085FF"/>
<path fill-rule="evenodd" clip-rule="evenodd" d="M222.18 25.0392H227.657V31.6954H222.18V37.9853H214.706V31.6954H198.12V25.5633L213.785 1.29581H222.18V25.0392ZM206.158 25.0392H214.706V11.6213L206.158 25.0392Z" fill="#0085FF"/>
<path fill-rule="evenodd" clip-rule="evenodd" d="M20.3194 40.444C21.8634 40.4075 23.3637 40.1912 24.8011 39.8151C25.085 39.7408 25.3665 39.6602 25.6453 39.5736C25.9692 39.473 26.2898 39.3648 26.6064 39.248C26.8934 39.1422 27.1771 39.0296 27.4577 38.9108C28.2019 38.5958 28.9231 38.2359 29.6183 37.8346C29.8774 37.6851 30.1329 37.53 30.3845 37.3691C32.6718 35.9067 34.6457 33.9822 36.1801 31.724C36.3318 31.5007 36.4787 31.2739 36.6217 31.0443C37.3263 29.9126 37.9234 28.7047 38.3989 27.4355C38.4339 27.3423 38.4682 27.2488 38.5018 27.1549C38.6788 26.6606 38.8378 26.1574 38.9773 25.6458C39.1004 25.1941 39.2088 24.736 39.3013 24.2721C39.3705 23.9253 39.4299 23.5751 39.4815 23.222C39.5256 22.9194 39.5632 22.6147 39.594 22.3079C39.6133 22.116 39.6305 21.9233 39.6445 21.7298C39.6803 21.2329 39.6988 20.7309 39.6988 20.2246C39.6988 20.2155 39.6988 20.2064 39.6988 20.1973C39.6844 19.4307 39.071 18.8132 38.3152 18.8132C37.5505 18.8133 36.9305 19.4455 36.9304 20.2246C36.9304 22.0264 36.6617 23.7646 36.1629 25.3991H28.2469L28.245 25.3984C28.4801 23.7802 28.6201 22.0506 28.6201 20.224L28.6137 20.0807C28.5427 19.3693 27.9529 18.8145 27.2359 18.8145C26.4712 18.8146 25.8511 19.4461 25.8511 20.2253C25.8511 22.0615 25.6981 23.7918 25.444 25.3991H14.2561C14.0019 23.7918 13.849 22.0614 13.849 20.2253C13.849 18.5594 13.9752 16.9807 14.1883 15.502C14.2119 15.2967 14.2344 15.1426 14.2548 15.0508H19.8504C20.615 15.0507 21.2351 14.4191 21.2352 13.64C21.2352 12.8607 20.6151 12.2286 19.8504 12.2285H14.8287C15.3061 10.3 15.904 8.60638 16.5043 7.18945C17.1681 5.62237 17.83 4.39798 18.3211 3.57227C18.4925 3.28402 18.6444 3.04541 18.7665 2.85742C18.7988 2.85537 18.8314 2.85476 18.8636 2.85286C18.9886 2.84537 19.1138 2.8395 19.2394 2.83464C19.2726 2.83338 19.3058 2.83179 19.3391 2.83073C19.3625 2.82999 19.3859 2.82808 19.4094 2.82747L19.8408 2.82227C19.8433 2.82226 19.8459 2.82161 19.8484 2.82161L19.8491 2.82227L19.8504 2.82161L19.9916 2.81445C20.6899 2.74222 21.2351 2.14131 21.2352 1.41081C21.2351 0.680221 20.6899 0.0787405 19.9916 0.00651042L19.8504 0L19.3794 0.00585938C19.338 0.00683773 19.2967 0.0078788 19.2554 0.00911458C17.6349 0.0577017 16.0634 0.304425 14.5628 0.725911C14.5232 0.737041 14.4835 0.747742 14.4439 0.759115C8.7975 2.38393 4.17394 6.49058 1.77786 11.8496C1.72054 11.9778 1.66454 12.1067 1.60979 12.2363C0.574593 14.687 3.74343e-05 17.3874 6.6121e-06 20.2246C6.65725e-06 20.2348 -8.28767e-06 20.245 6.6121e-06 20.2552C0.0160103 21.0204 0.6294 21.6361 1.3842 21.6361C2.14875 21.6358 2.76891 21.0036 2.76903 20.2246C2.76905 18.423 3.03774 16.6852 3.53654 15.0508H11.4538C11.3985 15.4311 11.349 15.8178 11.3049 16.2103C11.1297 17.8264 10.9288 20.7661 11.2991 24.1185C11.3473 24.5547 11.4051 24.9815 11.4666 25.3984L8.53395 25.3991C7.77517 25.4062 7.16204 26.0345 7.1619 26.8092C7.1619 27.5885 7.78199 28.2206 8.54674 28.2207H11.9964C12.5671 30.7234 13.2667 32.6185 13.6509 33.5521C14.4357 35.4594 16.992 34.474 16.2914 32.7441C15.7344 31.3692 15.5279 30.7569 15.2619 29.8008C15.1102 29.2936 14.9644 28.7666 14.8293 28.2207H24.8708C24.3933 30.1492 23.7954 31.8428 23.1952 33.2598C22.5313 34.827 21.8688 36.0512 21.3777 36.877C21.2063 37.1652 21.0544 37.4038 20.9323 37.5918C20.9306 37.5919 20.9289 37.5923 20.9272 37.5924C20.7633 37.6029 20.5988 37.6104 20.4338 37.6165C20.4112 37.6174 20.3887 37.6184 20.3661 37.6191C20.3406 37.62 20.3149 37.6211 20.2894 37.6217L19.8484 37.6276L19.7072 37.6348C19.009 37.7071 18.4637 38.308 18.4636 39.0384C18.4636 39.769 19.0089 40.3704 19.7072 40.4427L19.8484 40.4492L20.3194 40.444ZM4.67534 12.2285C6.82244 8.0073 10.6157 4.79505 15.1897 3.47656L15.1884 3.47852L15.1897 3.47786C14.8035 4.21207 14.3827 5.08028 13.9627 6.07161C13.2414 7.7745 12.5194 9.8464 11.9785 12.2285H4.67534ZM24.5103 36.9714H24.5091C24.8953 36.2371 25.3167 35.3691 25.7367 34.3776C26.4581 32.6747 27.1794 30.6028 27.7203 28.2207H35.0241C32.877 32.4419 29.0837 35.6541 24.5097 36.9727L24.5103 36.9714Z" fill="#0085FF"/>
<path d="M12.7041 38.7178C12.7041 39.5491 12.0429 40.2227 11.2269 40.2227H1.47721C0.661284 40.2227 6.9229e-06 39.5491 6.72854e-06 38.7178L7.08949e-06 28.7853L0.00765797 28.631C0.0833684 27.8721 0.712322 27.2804 1.47721 27.2804C2.24209 27.2804 2.87104 27.8721 2.94676 28.631L2.95441 28.7853L2.95441 37.2129H11.2269C12.0429 37.2129 12.7041 37.8866 12.7041 38.7178Z" fill="#0085FF"/>
<path d="M38.2231 12.9445C39.0391 12.9445 39.7004 12.2708 39.7004 11.4396V1.507C39.7004 0.675778 39.0391 0.00209828 38.2231 0.00209808L28.4734 0.00209845L28.3219 0.00989283C27.5769 0.0870233 26.9961 0.727773 26.9961 1.507C26.9961 2.28624 27.5769 2.92699 28.3219 3.00412L28.4734 3.01191L36.7459 3.01191V11.4396C36.7459 12.2708 37.4072 12.9445 38.2231 12.9445Z" fill="#0085FF"/>
<path d="M22.6708 16.0305C22.2918 16.8704 23.1428 17.7375 23.9671 17.3513L28.0699 15.4291C28.3291 15.3077 28.6274 15.3077 28.8865 15.4291L32.9893 17.3513C33.8136 17.7375 34.6646 16.8704 34.2856 16.0305L32.399 11.8502C32.2799 11.5861 32.2799 11.2822 32.399 11.0181L34.2856 6.8378C34.6646 5.99792 33.8136 5.13086 32.9893 5.51705L28.8865 7.43925C28.6274 7.56067 28.3291 7.56067 28.0699 7.43925L23.9671 5.51705C23.1428 5.13086 22.2918 5.99792 22.6708 6.8378L24.5574 11.0181C24.6765 11.2822 24.6765 11.5861 24.5574 11.8502L22.6708 16.0305Z" fill="#10B875"/>
</svg>
