<svg width="20" height="22" viewBox="0 0 20 22" fill="none" xmlns="http://www.w3.org/2000/svg">
<path fill-rule="evenodd" clip-rule="evenodd" d="M16.4932 4.74985C16.8466 4.85058 17.1687 5.04659 17.4277 5.31842C17.6867 5.59025 17.8734 5.92845 17.9695 6.29947C18.3224 7.67016 18.3332 10.5117 18.3332 10.5117C18.3332 10.5117 18.3332 13.3647 17.9803 14.724C17.8843 15.0951 17.6976 15.4334 17.4386 15.7053C17.1797 15.9772 16.8575 16.1733 16.5041 16.274C15.2095 16.6446 9.99988 16.6446 9.99988 16.6446C9.99988 16.6446 4.7903 16.6446 3.49572 16.274C3.14229 16.1733 2.82011 15.9772 2.56114 15.7053C2.30218 15.4334 2.11544 15.0951 2.01947 14.724C1.66655 13.3537 1.66655 10.5117 1.66655 10.5117C1.66655 10.5117 1.66655 7.67016 2.00905 6.31084C2.10503 5.93975 2.29176 5.60145 2.55073 5.32954C2.80969 5.05763 3.13187 4.86156 3.4853 4.76078C4.77947 4.39022 9.98947 4.37885 9.98947 4.37885C9.98947 4.37885 15.1986 4.37885 16.4936 4.74941M12.6528 10.5117L8.33113 13.1402V7.88366L12.6528 10.5117Z" fill="#333333"/>
</svg>
